M48
;Layer_Color=9474304
;FILE_FORMAT=4:4
METRIC,LZ
;TYPE=PLATED
T01F00S00C0.3000
T02F00S00C1.5000
%
T01
X00095Y00085
X00115
X00085Y00095
Y00115
Y00135
Y00155
Y00335
Y00355
Y00375
Y00395
X00104
Y00385
X00095
Y00365
Y00345
Y00325
X00105Y00335
X00115Y00325
X00127Y00327
Y00351
X00115Y00345
X00105Y00355
X00135Y0037095
X00192
X00191Y00431
Y0044
Y00449
X00104Y00409
X00127Y00296
X00125Y00285
X00127Y0025
X00141Y00209
Y002
Y00191
X00135Y0016905
Y0013095
X00104Y00145
X00095
X00104Y00155
X00095Y00125
X00105Y00115
X00095Y00105
X00105Y00095
X00115Y00105
X00192Y00131
X001985Y00186
X00227Y00166
X0025Y00166
X00274Y00166
X00277Y00223
X003005Y0023
X00311Y00253
X00329Y00246
Y00238
X00329Y00261
Y00269
X00329Y00294
Y00302
X00324Y00326
X00317
X003015Y003085
X0028Y00273
X00261Y00261
X00239
Y00239
X00261
X00233Y00216
X00243Y00204
X0021Y00231
X00216Y00256
X00212Y00266
X00223Y00288049
X002325Y00305
X00245Y00294
X002545Y00289
X002475Y003165
X001985Y00312
X00183Y00236
X00176
X00308Y001955
X003305Y001955
X0034Y00213
Y00221
X00378Y0022
X00394
X00403Y00206
Y00186
X00369
Y00206
X00378Y0028
X00394
X00403Y00294
Y00314
X00369
Y00294
X00386Y0038
X00289Y00359
X002735Y003695
X00284Y00405
X00386Y0012
T02
X0005Y002
Y003
X0045
Y0036
Y002
Y0014
M30
