G04*
G04 #@! TF.GenerationSoftware,Altium Limited,Altium Designer,25.2.1 (25)*
G04*
G04 Layer_Physical_Order=1*
G04 Layer_Color=255*
%FSLAX44Y44*%
%MOMM*%
G71*
G04*
G04 #@! TF.SameCoordinates,AC2081E8-41FF-4463-B602-B75E9B52F610*
G04*
G04*
G04 #@! TF.FilePolarity,Positive*
G04*
G01*
G75*
%ADD11C,0.2540*%
%ADD12R,2.1000X0.6000*%
%ADD13R,3.8500X5.5000*%
%ADD14R,0.9000X2.5000*%
%ADD15R,2.5500X3.7500*%
%ADD22C,0.5000*%
%ADD23C,4.0000*%
%ADD24C,0.6000*%
G36*
X194895Y427000D02*
X177000D01*
Y453000D01*
X194895D01*
Y427000D01*
D02*
G37*
G36*
X165000Y455000D02*
X165000Y425000D01*
X170000Y420000D01*
X187000Y420000D01*
X187000Y405000D01*
X140000Y405000D01*
X130000Y415000D01*
X80000Y415000D01*
X75000Y410000D01*
X75000Y320000D01*
X80000Y315000D01*
X192269Y315000D01*
X193601Y313000D01*
X193402Y312000D01*
X193790Y310049D01*
X194895Y308395D01*
X196549Y307290D01*
X198500Y306902D01*
X200451Y307290D01*
X202105Y308395D01*
X203210Y310049D01*
X203598Y312000D01*
X203399Y313000D01*
X204731Y315000D01*
X242700Y315000D01*
X242790Y314549D01*
X243895Y312895D01*
X245549Y311790D01*
X247500Y311402D01*
X249451Y311790D01*
X251105Y312895D01*
X252210Y314549D01*
X252300Y315000D01*
X298902Y315000D01*
X299127Y314380D01*
X299235Y313000D01*
X297895Y312105D01*
X296790Y310451D01*
X296402Y308500D01*
X296790Y306549D01*
X297895Y304895D01*
X299549Y303790D01*
X301500Y303402D01*
X303451Y303790D01*
X305105Y304895D01*
X306210Y306549D01*
X306598Y308500D01*
X306210Y310451D01*
X305105Y312105D01*
X303765Y313000D01*
X303873Y314380D01*
X304097Y315000D01*
X310000D01*
X324126Y300874D01*
X324290Y300049D01*
X325000Y298987D01*
Y297013D01*
X324290Y295951D01*
X323902Y294000D01*
X324290Y292049D01*
X325000Y290987D01*
Y272013D01*
X324290Y270951D01*
X323902Y269000D01*
X324290Y267049D01*
X325000Y265987D01*
Y264013D01*
X324290Y262951D01*
X323902Y261000D01*
X324290Y259049D01*
X325000Y257987D01*
Y249013D01*
X324290Y247951D01*
X323902Y246000D01*
X323081Y245000D01*
X295000D01*
Y275000D01*
X290000Y280000D01*
X80000Y280000D01*
X75000Y275000D01*
Y270000D01*
X80000Y265000D01*
X200000Y265000D01*
X211973Y253027D01*
X212395Y252395D01*
X213027Y251973D01*
X215000Y250000D01*
Y235895D01*
X214897Y235800D01*
X213000Y235009D01*
X211951Y235710D01*
X210000Y236098D01*
X208049Y235710D01*
X206395Y234605D01*
X205290Y232951D01*
X204902Y231000D01*
X205290Y229049D01*
X206395Y227395D01*
X208049Y226290D01*
X210000Y225902D01*
X211951Y226290D01*
X213000Y226991D01*
X214897Y226200D01*
X215000Y226105D01*
X215000Y165000D01*
X165000Y165000D01*
X165000Y215000D01*
X155000Y225000D01*
X30000Y225000D01*
X20000Y235000D01*
X20000Y455000D01*
X30000Y465000D01*
X155000D01*
X165000Y455000D01*
D02*
G37*
G36*
X243000Y342000D02*
X191000D01*
X165000Y368000D01*
Y400000D01*
X243000D01*
Y342000D01*
D02*
G37*
G36*
X357000Y384000D02*
X472000Y384000D01*
Y338000D01*
X303000Y338000D01*
Y398000D01*
X343000D01*
X357000Y384000D01*
D02*
G37*
G36*
X130000Y378000D02*
X107500D01*
X105500Y376000D01*
X105500Y370000D01*
Y365950D01*
X105550D01*
X107500Y364000D01*
X120000Y364000D01*
X120000Y320000D01*
X85000D01*
X80000Y325000D01*
Y395000D01*
X85000Y400000D01*
X130000D01*
X130000Y378000D01*
D02*
G37*
G36*
X407000Y276000D02*
X365000D01*
Y322000D01*
X407000D01*
Y276000D01*
D02*
G37*
G36*
X155000Y187000D02*
X137105D01*
Y213000D01*
X155000D01*
Y187000D01*
D02*
G37*
G36*
X407000Y178000D02*
X365000D01*
Y224000D01*
X407000D01*
Y178000D01*
D02*
G37*
G36*
X472000Y162000D02*
Y116000D01*
X357000Y116000D01*
X343000Y102000D01*
X303000D01*
Y162000D01*
X472000Y162000D01*
D02*
G37*
G36*
X243000Y102000D02*
X189000D01*
X165000Y126000D01*
Y160000D01*
X243000Y160000D01*
Y102000D01*
D02*
G37*
G36*
X130000Y138000D02*
X107500D01*
X105500Y136000D01*
X105500Y130000D01*
Y125950D01*
X105550D01*
X107500Y124000D01*
X120000Y124000D01*
X120000Y80000D01*
X85000D01*
X80000Y85000D01*
Y155000D01*
X85000Y160000D01*
X130000D01*
X130000Y138000D01*
D02*
G37*
%LPC*%
G36*
X232500Y310098D02*
X230549Y309710D01*
X228895Y308605D01*
X227790Y306951D01*
X227402Y305000D01*
X227790Y303049D01*
X228895Y301395D01*
X230549Y300290D01*
X232500Y299902D01*
X234451Y300290D01*
X236105Y301395D01*
X237210Y303049D01*
X237598Y305000D01*
X237210Y306951D01*
X236105Y308605D01*
X234451Y309710D01*
X232500Y310098D01*
D02*
G37*
G36*
X127000Y301098D02*
X125049Y300710D01*
X123395Y299605D01*
X122290Y297951D01*
X121902Y296000D01*
X122290Y294049D01*
X123395Y292395D01*
X125049Y291290D01*
X127000Y290902D01*
X128951Y291290D01*
X130605Y292395D01*
X131710Y294049D01*
X132098Y296000D01*
X131710Y297951D01*
X130605Y299605D01*
X128951Y300710D01*
X127000Y301098D01*
D02*
G37*
G36*
X245000Y299098D02*
X243049Y298710D01*
X241395Y297605D01*
X240290Y295951D01*
X239902Y294000D01*
X240290Y292049D01*
X241395Y290395D01*
X243049Y289290D01*
X245000Y288902D01*
X246951Y289290D01*
X247493Y289652D01*
X248243Y289396D01*
X249486Y288578D01*
X249790Y287049D01*
X250895Y285395D01*
X252549Y284290D01*
X254500Y283902D01*
X256451Y284290D01*
X258105Y285395D01*
X259210Y287049D01*
X259598Y289000D01*
X259210Y290951D01*
X258105Y292605D01*
X256451Y293710D01*
X254500Y294098D01*
X252549Y293710D01*
X252007Y293348D01*
X251257Y293604D01*
X250014Y294422D01*
X249710Y295951D01*
X248605Y297605D01*
X246951Y298710D01*
X245000Y299098D01*
D02*
G37*
G36*
X223000Y293147D02*
X221049Y292759D01*
X219395Y291654D01*
X218290Y290000D01*
X217902Y288049D01*
X218290Y286098D01*
X219395Y284445D01*
X221049Y283340D01*
X223000Y282952D01*
X224951Y283340D01*
X226605Y284445D01*
X227710Y286098D01*
X228098Y288049D01*
X227710Y290000D01*
X226605Y291654D01*
X224951Y292759D01*
X223000Y293147D01*
D02*
G37*
G36*
X127000Y255098D02*
X125049Y254710D01*
X123395Y253605D01*
X122290Y251951D01*
X121902Y250000D01*
X122290Y248049D01*
X123395Y246395D01*
X125049Y245290D01*
X127000Y244902D01*
X128951Y245290D01*
X130605Y246395D01*
X131710Y248049D01*
X132098Y250000D01*
X131710Y251951D01*
X130605Y253605D01*
X128951Y254710D01*
X127000Y255098D01*
D02*
G37*
G36*
X183000Y241098D02*
X181049Y240710D01*
X179500Y239675D01*
X177951Y240710D01*
X176000Y241098D01*
X174049Y240710D01*
X172395Y239605D01*
X171290Y237951D01*
X170902Y236000D01*
X171290Y234049D01*
X172395Y232395D01*
X174049Y231290D01*
X176000Y230902D01*
X177951Y231290D01*
X179500Y232325D01*
X181049Y231290D01*
X183000Y230902D01*
X184951Y231290D01*
X186605Y232395D01*
X187710Y234049D01*
X188098Y236000D01*
X187710Y237951D01*
X186605Y239605D01*
X184951Y240710D01*
X183000Y241098D01*
D02*
G37*
G36*
X198500Y191098D02*
X196549Y190710D01*
X194895Y189605D01*
X193790Y187951D01*
X193402Y186000D01*
X193790Y184049D01*
X194895Y182395D01*
X196549Y181290D01*
X198500Y180902D01*
X200451Y181290D01*
X202105Y182395D01*
X203210Y184049D01*
X203598Y186000D01*
X203210Y187951D01*
X202105Y189605D01*
X200451Y190710D01*
X198500Y191098D01*
D02*
G37*
%LPD*%
D11*
X42540Y47775D02*
Y32540D01*
Y37618D01*
X52697Y47775D01*
X45079Y40157D01*
X52697Y32540D01*
X67932Y47775D02*
X57775D01*
Y32540D01*
X67932D01*
X57775Y40157D02*
X62853D01*
X73010Y32540D02*
Y47775D01*
X83167Y32540D01*
Y47775D01*
X88245D02*
Y45236D01*
X93324Y40157D01*
X98402Y45236D01*
Y47775D01*
X93324Y40157D02*
Y32540D01*
X103480D02*
Y42697D01*
X108559Y47775D01*
X113637Y42697D01*
Y32540D01*
Y40157D01*
X103480D01*
X144107Y45236D02*
X141568Y47775D01*
X136490D01*
X133950Y45236D01*
Y42697D01*
X136490Y40157D01*
X141568D01*
X144107Y37618D01*
Y35079D01*
X141568Y32540D01*
X136490D01*
X133950Y35079D01*
X149185Y32540D02*
Y47775D01*
X156803D01*
X159342Y45236D01*
Y40157D01*
X156803Y37618D01*
X149185D01*
X164421Y32540D02*
Y42697D01*
X169499Y47775D01*
X174577Y42697D01*
Y32540D01*
Y40157D01*
X164421D01*
X189812Y45236D02*
X187273Y47775D01*
X182195D01*
X179656Y45236D01*
Y35079D01*
X182195Y32540D01*
X187273D01*
X189812Y35079D01*
X205047Y47775D02*
X194891D01*
Y32540D01*
X205047D01*
X194891Y40157D02*
X199969D01*
X225361Y32540D02*
Y42697D01*
X230439Y47775D01*
X235518Y42697D01*
Y32540D01*
Y40157D01*
X225361D01*
X250753Y45236D02*
X248214Y47775D01*
X243135D01*
X240596Y45236D01*
Y35079D01*
X243135Y32540D01*
X248214D01*
X250753Y35079D01*
Y40157D01*
X245674D01*
X265988Y47775D02*
X255831D01*
Y32540D01*
X265988D01*
X255831Y40157D02*
X260909D01*
X271066Y32540D02*
Y47775D01*
X281223Y32540D01*
Y47775D01*
X296458Y45236D02*
X293919Y47775D01*
X288840D01*
X286301Y45236D01*
Y35079D01*
X288840Y32540D01*
X293919D01*
X296458Y35079D01*
X301536Y47775D02*
Y45236D01*
X306615Y40157D01*
X311693Y45236D01*
Y47775D01*
X306615Y40157D02*
Y32540D01*
D12*
X176000Y130950D02*
D03*
Y143650D02*
D03*
Y156350D02*
D03*
Y169050D02*
D03*
X118000Y130950D02*
D03*
Y143650D02*
D03*
Y156350D02*
D03*
Y169050D02*
D03*
X176000Y370950D02*
D03*
Y383650D02*
D03*
Y396350D02*
D03*
Y409050D02*
D03*
X118000Y370950D02*
D03*
Y383650D02*
D03*
Y396350D02*
D03*
Y409050D02*
D03*
D13*
X322750Y130000D02*
D03*
X223250D02*
D03*
X223250Y370000D02*
D03*
X322750D02*
D03*
D14*
X150500Y200000D02*
D03*
X181500D02*
D03*
Y440000D02*
D03*
X150500D02*
D03*
D15*
X386000Y143000D02*
D03*
Y197000D02*
D03*
Y357000D02*
D03*
Y303000D02*
D03*
D22*
X104000Y409000D02*
X121680D01*
X121730Y409050D01*
Y169050D02*
X135000D01*
X121730Y130950D02*
X135000D01*
X121730Y370950D02*
X135000D01*
D23*
X50000Y300000D02*
D03*
Y200000D02*
D03*
X450000Y360000D02*
D03*
Y140000D02*
D03*
Y300000D02*
D03*
Y200000D02*
D03*
D24*
X104000Y409000D02*
D03*
Y395000D02*
D03*
X192000Y131000D02*
D03*
X104000Y145000D02*
D03*
Y155000D02*
D03*
X95000Y145000D02*
D03*
X85000Y155000D02*
D03*
Y135000D02*
D03*
X95000Y125000D02*
D03*
X85000Y115000D02*
D03*
X105000D02*
D03*
X95000Y105000D02*
D03*
X85000Y95000D02*
D03*
X105000D02*
D03*
X95000Y85000D02*
D03*
X115000D02*
D03*
Y105000D02*
D03*
Y345000D02*
D03*
Y325000D02*
D03*
X95000D02*
D03*
X105000Y335000D02*
D03*
X85000D02*
D03*
X95000Y345000D02*
D03*
X105000Y355000D02*
D03*
X85000D02*
D03*
X95000Y365000D02*
D03*
X85000Y375000D02*
D03*
Y395000D02*
D03*
X95000Y385000D02*
D03*
X104000D02*
D03*
X176000Y236000D02*
D03*
X183000D02*
D03*
X340000Y221000D02*
D03*
Y213000D02*
D03*
X329000Y246000D02*
D03*
Y238000D02*
D03*
X329000Y269000D02*
D03*
Y261000D02*
D03*
X329000Y294000D02*
D03*
X324000Y326000D02*
D03*
X317000D02*
D03*
X378000Y220000D02*
D03*
X369000Y186000D02*
D03*
Y206000D02*
D03*
X394000Y220000D02*
D03*
X403000Y206000D02*
D03*
Y186000D02*
D03*
X369000Y314000D02*
D03*
Y294000D02*
D03*
X378000Y280000D02*
D03*
X403000Y294000D02*
D03*
Y314000D02*
D03*
X394000Y280000D02*
D03*
X141000Y200000D02*
D03*
Y191000D02*
D03*
Y209000D02*
D03*
X191000Y431000D02*
D03*
Y449000D02*
D03*
X254500Y289000D02*
D03*
X223000Y288049D02*
D03*
X125000Y285000D02*
D03*
X280000Y273000D02*
D03*
X289000Y359000D02*
D03*
X300500Y230000D02*
D03*
X311000Y253000D02*
D03*
X329000Y302000D02*
D03*
X301500Y308500D02*
D03*
X239000Y261000D02*
D03*
X261000D02*
D03*
X239000Y239000D02*
D03*
X245000Y294000D02*
D03*
X386000Y380000D02*
D03*
Y120000D02*
D03*
X216000Y256000D02*
D03*
X210000Y231000D02*
D03*
X212000Y266000D02*
D03*
X232500Y305000D02*
D03*
X233000Y216000D02*
D03*
X192000Y370950D02*
D03*
X135000Y130950D02*
D03*
Y169050D02*
D03*
Y370950D02*
D03*
X191000Y440000D02*
D03*
X284000Y405000D02*
D03*
X261000Y239000D02*
D03*
X247500Y316500D02*
D03*
X330500Y195500D02*
D03*
X250000Y166000D02*
D03*
X273500Y369500D02*
D03*
X274000Y166000D02*
D03*
X227000D02*
D03*
X127000Y296000D02*
D03*
Y327000D02*
D03*
Y351000D02*
D03*
X198500Y312000D02*
D03*
X127000Y250000D02*
D03*
X277000Y223000D02*
D03*
X308000Y195500D02*
D03*
X243000Y204000D02*
D03*
X198500Y186000D02*
D03*
M02*
