G04*
G04 #@! TF.GenerationSoftware,Altium Limited,Altium Designer,25.2.1 (25)*
G04*
G04 Layer_Color=8388736*
%FSLAX44Y44*%
%MOMM*%
G71*
G04*
G04 #@! TF.SameCoordinates,AC2081E8-41FF-4463-B602-B75E9B52F610*
G04*
G04*
G04 #@! TF.FilePolarity,Negative*
G04*
G01*
G75*
%ADD16C,0.3000*%
%ADD17R,2.3032X0.8032*%
%ADD18R,4.0532X5.7032*%
%ADD19R,1.1032X2.7032*%
%ADD20R,2.7532X3.9532*%
%ADD21C,4.2032*%
D16*
X43000Y48235D02*
Y33000D01*
Y38078D01*
X53157Y48235D01*
X45539Y40617D01*
X53157Y33000D01*
X68392Y48235D02*
X58235D01*
Y33000D01*
X68392D01*
X58235Y40617D02*
X63313D01*
X73470Y33000D02*
Y48235D01*
X83627Y33000D01*
Y48235D01*
X88705D02*
Y45696D01*
X93784Y40617D01*
X98862Y45696D01*
Y48235D01*
X93784Y40617D02*
Y33000D01*
X103940D02*
Y43157D01*
X109019Y48235D01*
X114097Y43157D01*
Y33000D01*
Y40617D01*
X103940D01*
X144567Y45696D02*
X142028Y48235D01*
X136950D01*
X134410Y45696D01*
Y43157D01*
X136950Y40617D01*
X142028D01*
X144567Y38078D01*
Y35539D01*
X142028Y33000D01*
X136950D01*
X134410Y35539D01*
X149646Y33000D02*
Y48235D01*
X157263D01*
X159802Y45696D01*
Y40617D01*
X157263Y38078D01*
X149646D01*
X164881Y33000D02*
Y43157D01*
X169959Y48235D01*
X175037Y43157D01*
Y33000D01*
Y40617D01*
X164881D01*
X190272Y45696D02*
X187733Y48235D01*
X182655D01*
X180116Y45696D01*
Y35539D01*
X182655Y33000D01*
X187733D01*
X190272Y35539D01*
X205507Y48235D02*
X195351D01*
Y33000D01*
X205507D01*
X195351Y40617D02*
X200429D01*
X225821Y33000D02*
Y43157D01*
X230899Y48235D01*
X235978Y43157D01*
Y33000D01*
Y40617D01*
X225821D01*
X251213Y45696D02*
X248673Y48235D01*
X243595D01*
X241056Y45696D01*
Y35539D01*
X243595Y33000D01*
X248673D01*
X251213Y35539D01*
Y40617D01*
X246134D01*
X266448Y48235D02*
X256291D01*
Y33000D01*
X266448D01*
X256291Y40617D02*
X261369D01*
X271526Y33000D02*
Y48235D01*
X281683Y33000D01*
Y48235D01*
X296918Y45696D02*
X294379Y48235D01*
X289300D01*
X286761Y45696D01*
Y35539D01*
X289300Y33000D01*
X294379D01*
X296918Y35539D01*
X301996Y48235D02*
Y45696D01*
X307075Y40617D01*
X312153Y45696D01*
Y48235D01*
X307075Y40617D02*
Y33000D01*
D17*
X176000Y130950D02*
D03*
Y143650D02*
D03*
Y156350D02*
D03*
Y169050D02*
D03*
X118000Y130950D02*
D03*
Y143650D02*
D03*
Y156350D02*
D03*
Y169050D02*
D03*
X176000Y370950D02*
D03*
Y383650D02*
D03*
Y396350D02*
D03*
Y409050D02*
D03*
X118000Y370950D02*
D03*
Y383650D02*
D03*
Y396350D02*
D03*
Y409050D02*
D03*
D18*
X322750Y130000D02*
D03*
X223250D02*
D03*
X223250Y370000D02*
D03*
X322750D02*
D03*
D19*
X150500Y200000D02*
D03*
X181500D02*
D03*
Y440000D02*
D03*
X150500D02*
D03*
D20*
X386000Y143000D02*
D03*
Y197000D02*
D03*
Y357000D02*
D03*
Y303000D02*
D03*
D21*
X50000Y300000D02*
D03*
Y200000D02*
D03*
X450000Y360000D02*
D03*
Y140000D02*
D03*
Y300000D02*
D03*
Y200000D02*
D03*
M02*
